# xmcd
#
# Track frame offsets:
#	150
#	15367
#	26626
#	40867
#	57668
#	72139
#	86033
#	101637
#	113617
#	126680
#	140546
#	157622
#	171254
#	185780
#	200713
#
# Disc length: 2825 seconds
#
# Revision: 0
# Processed by: cddbd v1.5.2PL0 Copyright (c) Steve Scherf et al.
# Submitted via: EasyCDDAExtractor 16.0.6.1
#
DISCID=d40b070f
DTITLE=Διάφοροι - Του αετού ο Γιός Τα καλύτερα ζεϊμπέκικα Cd2
DYEAR=1900
DGENRE=
TTITLE0=Άσπρο πουκάμισο (Στέλιος Καζαντζίδης)
TTITLE1=Λέγε με παλιόπαιδο (Στράτος Διονυσίου)
TTITLE2=Μολυβιά (Μανώλης Αγγελόπουλος)
TTITLE3=Ο αετός (Νότης Σφακιανάκης)
TTITLE4=Επιστροφές καταστροφές (Πασχάλης Τερζής)
TTITLE5=Αυτά τα χέρια (Μανώλης Μητσιάς)
TTITLE6=Το τρελοκόριτσο (Γρ.Μπιθικώτσης and Ελένη Κώτσογλου)
TTITLE7=Έξω φυσάει και βρέχει (Σταμάτης Κόκοτας)
TTITLE8=Χρεωσέ το σε μένα (Βασίλης Καρράς)
TTITLE9=Υπήρχαν όρκοι (Γιάννης Πλούταρχος)
TTITLE10=Φέρτε μια κούπα με κρασί (Πόλυ Πάνου)
TTITLE11=Ένας αητός λαβώθηκε (Μάνος Παπαδάκης)
TTITLE12=Δεν υπάρχουν Άγγελοι (Κατερίνα Κούκα)
TTITLE13=Πριν χαθεί το ονειρό μας (Τόλης Βοσκόπουλος)
TTITLE14=Ένας αητός γκρεμίστηκε (Στράτος Διονυσίου)
EXTD=
EXTT0=
EXTT1=
EXTT2=
EXTT3=
EXTT4=
EXTT5=
EXTT6=
EXTT7=
EXTT8=
EXTT9=
EXTT10=
EXTT11=
EXTT12=
EXTT13=
EXTT14=
PLAYORDER=
